# xmcd
#
# Track frame offsets:
#	150
#	16836
#	33792
#	59600
#	73199
#	84455
#	103918
#	114369
#	126503
#	149977
#	181083
#	198865
#	221668
#	241482
#
# Disc length: 3358 seconds
#
# Revision: 1
# Processed by: cddbd v1.5.2PL0 Copyright (c) Steve Scherf et al.
# Submitted via: audiograbber 1.83.01
#
DISCID=d10d1c0e
DTITLE=Gospel Inspiration - Living In The Name Of The Lord
DYEAR=2007
DGENRE=Gospel
TTITLE0=Living In The Name Of The Lord
TTITLE1=Confirmation Song
TTITLE2=Bridge Over Troubled Water
TTITLE3=Lighthouse Showing My Way
TTITLE4=The Lord's Prayer
TTITLE5=Nobody Knows The Trouble I've Seen
TTITLE6=Listen To The Children
TTITLE7=Java Jive
TTITLE8=Could You Believe In A Dream
TTITLE9=Gospel Special #2
TTITLE10=Oh Happy Day
TTITLE11=Sound Of Silence
TTITLE12=Java Jive (Bonus)
TTITLE13=All My Trials
EXTD=
EXTT0=
EXTT1=
EXTT2=
EXTT3=
EXTT4=
EXTT5=
EXTT6=
EXTT7=
EXTT8=
EXTT9=
EXTT10=
EXTT11=
EXTT12=
EXTT13=
PLAYORDER=
